<?xml version="1.0" standalone="no"?>
<!DOCTYPE svg PUBLIC "-//W3C//DTD SVG 20010904//EN"
 "http://www.w3.org/TR/2001/REC-SVG-20010904/DTD/svg10.dtd">
<svg version="1.0" xmlns="http://www.w3.org/2000/svg"
 width="480.000000pt" height="520.000000pt" viewBox="0 0 480.000000 520.000000"
 preserveAspectRatio="xMidYMid meet">

<g transform="translate(0.000000,520.000000) scale(0.100000,-0.100000)"
fill="#000000" stroke="none">
<path d="M2297 4848 c-20 -46 -58 -135 -86 -198 -27 -63 -97 -225 -156 -360
-212 -485 -295 -680 -295 -692 0 -6 15 2 33 19 55 53 156 112 204 119 58 9 90
-7 111 -54 15 -33 17 -76 15 -377 -5 -845 -67 -1406 -179 -1628 -36 -69 -125
-188 -175 -230 -88 -75 -203 -85 -326 -27 -35 16 -63 25 -63 21 0 -11 115
-119 167 -157 59 -44 233 -193 283 -244 69 -69 164 -182 209 -249 74 -108 183
-347 205 -448 9 -41 27 -55 68 -51 l33 3 3 2318 c1 1274 -2 2317 -6 2317 -5 0
-25 -37 -45 -82z"/>
<path d="M3517 4013 c-27 -84 -313 -889 -352 -993 -14 -36 -25 -69 -25 -74 0
-4 35 23 78 61 101 91 137 115 165 111 22 -3 22 -4 21 -173 -6 -596 -156
-1113 -384 -1318 -64 -58 -144 -82 -191 -57 -28 16 -23 1 19 -55 84 -112 202
-159 321 -128 131 34 180 82 269 259 143 286 222 743 222 1290 0 153 2 175 17
181 26 10 91 -31 181 -113 l82 -76 -31 84 c-73 197 -198 550 -305 857 -36 102
-66 186 -68 188 -1 2 -10 -18 -19 -44z"/>
<path d="M1574 880 c-16 -46 -19 -83 -19 -220 1 -153 3 -171 28 -248 41 -121
42 -122 210 -122 157 0 150 -8 72 81 -127 144 -225 335 -259 504 l-13 60 -19
-55z"/>
</g>
</svg>
